<?xml version="1.0" encoding="utf-8"?>
<!-- Generator: Adobe Illustrator 24.0.2, SVG Export Plug-In . SVG Version: 6.00 Build 0)  -->
<svg version="1.1" id="Capa_1" xmlns="http://www.w3.org/2000/svg" xmlns:xlink="http://www.w3.org/1999/xlink" x="0px" y="0px"
	 viewBox="0 0 184 39" style="enable-background:new 0 0 184 39;" xml:space="preserve">
<style type="text/css">
	.st0{fill:#FFFFFF;}
	.st1{opacity:0.5;fill:#FFFFFF;enable-background:new    ;}
</style>
<path class="st0" d="M7,7L7,7c3.9-3.9,10.1-3.9,14,0l11,11c3.9,3.9,3.9,10.1,0,14l0,0c-3.9,3.9-10.1,3.9-14,0L7,21
	C3.1,17.1,3.1,10.8,7,7z"/>
<path class="st1" d="M33.9,5.4v10.1L23.8,5.4H33.9z"/>
<path class="st0" d="M5.5,33.9V23.8l10.1,10.1H5.5z"/>
<g>
	<path class="st0" d="M47,11.7v18h-5.5v-18H47z"/>
	<path class="st0" d="M63,29.7h-5.3v-8.4c0-0.7-0.1-1.1-0.3-1.3c-0.2-0.2-0.5-0.3-0.8-0.3c-1,0-1.4,0.7-1.4,2v8.1h-5.3V16.3h4.9v1.9
		c0.7-1.5,2-2.2,3.9-2.2c1,0,1.8,0.2,2.5,0.6c0.7,0.4,1.2,0.9,1.4,1.5c0.3,0.6,0.4,1.6,0.4,3.1V29.7z"/>
	<path class="st0" d="M86.1,29.7H81v-8.4c0-0.6-0.1-1-0.2-1.2c-0.2-0.2-0.5-0.3-0.9-0.3c-1,0-1.5,0.7-1.5,2.1v7.8h-5v-8.4
		c0-1.1-0.4-1.6-1.2-1.6c-0.9,0-1.3,0.5-1.3,1.6v8.4h-5.1V16.3h4.7v1.8c0.8-1.4,2.1-2.1,3.7-2.1c1.7,0,3,0.7,3.8,2.1
		c0.9-1.4,2.2-2.1,4-2.1c0.9,0,1.6,0.2,2.3,0.5c0.7,0.4,1.1,0.8,1.4,1.4c0.3,0.6,0.4,1.4,0.4,2.6V29.7z"/>
	<path class="st0" d="M97.8,24.9l4.9,0.3c-0.3,1.3-1,2.4-2.2,3.4c-1.2,0.9-2.8,1.4-4.8,1.4c-2.3,0-4.1-0.7-5.4-2
		c-1.3-1.3-2-2.9-2-4.9c0-2,0.7-3.7,2-5.1s3.1-2.1,5.3-2.1c2.1,0,3.9,0.7,5.2,2c1.3,1.3,2,3.1,2,5.3c0,0.2,0,0.4,0,0.8h-9
		c0,0.8,0.2,1.5,0.4,1.9c0.3,0.4,0.8,0.6,1.6,0.6C96.9,26.5,97.6,26,97.8,24.9z M97.4,21.4c0-0.9-0.2-1.5-0.5-1.8
		c-0.4-0.3-0.8-0.5-1.3-0.5c-1.2,0-1.9,0.8-1.9,2.3H97.4z"/>
	<path class="st0" d="M109.8,29.7h-5V16.3h4.4V19c0.5-2,1.7-3,3.5-3c0.2,0,0.4,0,0.8,0.1v4.7c-0.4-0.1-0.7-0.1-1-0.1
		c-1.7,0-2.6,1-2.6,2.9V29.7z"/>
	<path class="st0" d="M113.4,24.5l5.1-0.9c0.4,1.5,1.5,2.2,3.3,2.2c1.4,0,2.1-0.4,2.1-1.1c0-0.4-0.2-0.7-0.5-0.9
		c-0.3-0.2-0.9-0.4-1.7-0.6c-3.2-0.6-5.2-1.4-6.1-2.4c-0.9-1-1.3-2.1-1.3-3.4c0-1.7,0.6-3.1,1.9-4.2c1.3-1.1,3.1-1.7,5.6-1.7
		c3.7,0,6.1,1.5,7.3,4.4l-4.6,1.4c-0.5-1.2-1.4-1.8-2.9-1.8c-1.2,0-1.8,0.4-1.8,1.1c0,0.3,0.1,0.6,0.4,0.8s0.8,0.4,1.6,0.5
		c2.2,0.5,3.7,0.9,4.6,1.2c0.9,0.4,1.7,1,2.3,1.8c0.6,0.8,0.9,1.8,0.9,3c0,1.8-0.7,3.3-2.2,4.4c-1.5,1.1-3.4,1.7-5.8,1.7
		C117.1,29.9,114.4,28.1,113.4,24.5z"/>
	<path class="st0" d="M144.5,16.3v13.4h-4.9v-2.2c-0.7,1.7-2.1,2.5-4.2,2.5c-1.3,0-2.3-0.4-3-1.1c-0.7-0.7-1-1.7-1-3v-9.6h5.3v8.4
		c0,0.5,0.1,0.9,0.2,1.1c0.1,0.2,0.4,0.3,0.9,0.3c0.4,0,0.8-0.2,1.1-0.5c0.3-0.3,0.4-0.8,0.4-1.4v-8H144.5z"/>
	<path class="st0" d="M152.5,11.1v4.2h-5.3v-4.2H152.5z M152.5,16.3v13.4h-5.3V16.3H152.5z"/>
	<path class="st0" d="M163.5,16.3v3.4h-2.7v4.9c0,0.7,0.1,1.1,0.4,1.2c0.3,0.1,0.5,0.2,0.8,0.2c0.4,0,0.9-0.1,1.5-0.2v3.7
		c-1,0.2-2.1,0.3-3.1,0.3c-1.6,0-2.8-0.3-3.6-1c-0.8-0.7-1.1-1.8-1.1-3.3l0-1.6v-4.2h-2v-3.4h2l0.1-4.4l5-0.1v4.4H163.5z"/>
	<path class="st0" d="M174.2,24.9l4.9,0.3c-0.3,1.3-1,2.4-2.2,3.4c-1.2,0.9-2.8,1.4-4.8,1.4c-2.3,0-4.1-0.7-5.4-2
		c-1.3-1.3-2-2.9-2-4.9c0-2,0.7-3.7,2-5.1s3.1-2.1,5.3-2.1c2.1,0,3.9,0.7,5.2,2c1.3,1.3,2,3.1,2,5.3c0,0.2,0,0.4,0,0.8h-9
		c0,0.8,0.2,1.5,0.4,1.9c0.3,0.4,0.8,0.6,1.6,0.6C173.3,26.5,174,26,174.2,24.9z M173.8,21.4c0-0.9-0.2-1.5-0.5-1.8
		c-0.4-0.3-0.8-0.5-1.3-0.5c-1.2,0-1.9,0.8-1.9,2.3H173.8z"/>
</g>
</svg>
